# xmcd
#
# Track frame offsets:
#	150
#	14252
#	31616
#	53791
#	68988
#	81568
#	99120
#	115669
#	131383
#	147479
#	163317
#
# Disc length: 2363 seconds
#
# Revision: 1
# Processed by: cddbd v1.5.2PL0 Copyright (c) Steve Scherf et al.
# Submitted via: audiograbber 1.83.01
#
DISCID=8d09390b
DTITLE=Reba McEntire - Icon
DYEAR=2014
DGENRE=Country
TTITLE0=Little Rock
TTITLE1=The Heart is a Lonely Hunter
TTITLE2=Fancy
TTITLE3=The Heart Won't Lie Ft. Vince Gill
TTITLE4=Have I Got a Deal For You
TTITLE5=Is There Life Out There
TTITLE6=How Was I To Know
TTITLE7=Why Haven't I Heard From You
TTITLE8=Somebody Should Leave
TTITLE9=What am I Gonna do About You
TTITLE10=I'm a Survivor
EXTD=
EXTT0=
EXTT1=
EXTT2=
EXTT3=
EXTT4=
EXTT5=
EXTT6=
EXTT7=
EXTT8=
EXTT9=
EXTT10=
PLAYORDER=
